<svg width="10" height="10" viewBox="0 0 10 10" fill="none" xmlns="http://www.w3.org/2000/svg">
<g clip-path="url(#clip0_10012_101523)">
<path d="M8.84506 3.69967C8.66377 3.50153 8.36858 3.17827 8.17927 2.97131C8.06857 2.85099 7.91296 2.78281 7.75012 2.78201C7.63059 2.78201 7.52231 2.7812 7.39718 2.7812C7.45653 2.53655 7.52552 2.41061 7.41643 2.16114C7.34664 2.00071 6.36882 1.03412 6.23085 1.01407C6.13459 1.00043 6.03994 1.00845 5.95411 1.05819L4.36585 2.56863L4.35863 2.57585C3.79392 2.08895 3.28135 1.43039 2.70059 0.972358C2.58348 0.880111 2.41823 0.875298 2.29871 0.965138C2.12866 1.09268 1.93775 1.29402 1.85833 1.37343C1.75004 1.48252 1.75646 1.67825 1.91288 1.83547C2.16155 2.08333 2.56904 2.53013 2.82091 2.78201H1.20458C1.08105 2.78201 0.97998 2.88308 0.97998 3.00661V7.67512L1.77491 8.40347C1.8824 8.50294 2.02358 8.55748 2.17037 8.55748H7.47739C7.6314 8.55748 7.7798 8.49652 7.88889 8.38743L8.81457 7.46977C8.92447 7.35987 8.98623 7.21148 8.98704 7.05666L8.99987 4.09753C9.00067 3.94994 8.94532 3.80796 8.84506 3.69967ZM7.79825 6.59222L7.11642 7.35426H1.30646V3.10287H3.10568C3.18028 3.10287 3.23723 3.05875 3.27493 2.99698C3.35435 2.86784 3.32386 2.69858 3.21477 2.5919C2.88749 2.27264 2.19203 1.59884 2.19203 1.59884C2.25059 1.54028 2.42064 1.37825 2.46396 1.33493L4.18136 2.95367C4.29607 3.06196 4.47655 3.05474 4.58163 2.93682C5.00355 2.46676 6.12898 1.42236 6.12898 1.42236L6.42337 1.69349L5.50811 2.67291C5.5025 2.68495 5.49769 2.69618 5.49368 2.70821C5.42389 2.90072 5.57148 3.10287 5.77603 3.10287H7.79825V6.59222Z" fill="#FE6223"/>
<path d="M5.77622 3.10192C5.57167 3.10192 5.42407 2.89978 5.49386 2.70726C5.49787 2.69523 5.50268 2.684 5.5083 2.67197L6.42355 1.69255L6.12916 1.42142C6.12916 1.42142 5.00375 2.46582 4.58182 2.93588C4.47673 3.05379 4.29625 3.06101 4.18154 2.95272L2.46414 1.33398C2.42083 1.3773 2.25077 1.53933 2.19221 1.59789C2.19221 1.59789 2.88768 2.2717 3.21495 2.59095C3.32405 2.69764 3.35454 2.86689 3.27512 2.99604C3.23741 3.0578 3.18046 3.10192 3.10586 3.10192H1.30664V7.35331H7.11661L7.79844 6.59127V3.10192H5.77622ZM2.66468 5.1474C2.66468 5.27815 1.86253 5.27815 1.86253 5.1474V3.78375C1.86253 3.65861 2.66468 3.65059 2.66468 3.78375V5.1474ZM3.94812 5.1474C3.94812 5.26291 3.14597 5.27815 3.14597 5.1474V3.78375C3.14597 3.65059 3.94812 3.65059 3.94812 3.78375V5.1474ZM5.19626 6.1549C5.19626 6.24554 5.20428 6.2303 4.67005 6.2303C4.67005 6.87523 4.75267 6.7902 4.15026 6.7902C3.92165 6.7902 3.95935 6.83111 3.95935 6.24073C4.02031 6.24073 4.50962 6.2303 4.67005 6.2303C4.68048 5.99126 4.66203 5.74741 4.67005 5.50837C5.30776 5.50837 5.19626 5.42815 5.19626 6.1549Z" fill="white"/>
<path d="M2.6647 3.78438V5.14804C2.6647 5.27879 1.86255 5.27879 1.86255 5.14804V3.78438C1.86255 3.65925 2.6647 3.65123 2.6647 3.78438Z" fill="#FE6223"/>
<path d="M3.94815 3.78346V5.14712C3.94815 5.26262 3.146 5.27787 3.146 5.14712V3.78346C3.146 3.6503 3.94815 3.6503 3.94815 3.78346Z" fill="#FE6223"/>
<path d="M4.15026 6.79037C3.92165 6.79037 3.95935 6.83128 3.95935 6.2409C4.02031 6.2409 4.50962 6.23047 4.67005 6.23047C4.67005 6.8754 4.75268 6.79037 4.15026 6.79037Z" fill="#FE6223"/>
<path d="M5.19626 6.15501C5.19626 6.24566 5.20429 6.23042 4.67005 6.23042C4.68048 5.99138 4.66203 5.74752 4.67005 5.50848C5.30776 5.50848 5.19626 5.42827 5.19626 6.15501Z" fill="#FE6223"/>
</g>
<defs>
<clipPath id="clip0_10012_101523">
<rect width="8.0199" height="7.65709" fill="white" transform="translate(0.97998 0.900391)"/>
</clipPath>
</defs>
</svg>
